# xmcd
#
# Track frame offsets:
#	150
#	11925
#	24978
#	39865
#	50820
#	62500
#	78345
#	97453
#	112600
#	124978
#
# Disc length: 1786 seconds
#
# Revision: 0
# Processed by: cddbd v1.5.2PL0 Copyright (c) Steve Scherf et al.
# Submitted via: EasyCDDAExtractor 10.0.3.1
#
DISCID=7d06f80a
DTITLE=Tina Turner - Goes Country
DYEAR=1900
DGENRE=
TTITLE0=Stand By Your Man
TTITLE1=Freedom To Stay
TTITLE2=When You Were My Man
TTITLE3=Soul Deep
TTITLE4=You Ain't Women Enough To Take My Man
TTITLE5=Lay It Down
TTITLE6=Loning Him Was Easier
TTITLE7=Good Hearted Woman
TTITLE8=If It's Alright With You
TTITLE9=If This is Our Last Time
EXTD=
EXTT0=
EXTT1=
EXTT2=
EXTT3=
EXTT4=
EXTT5=
EXTT6=
EXTT7=
EXTT8=
EXTT9=
PLAYORDER=
